<?xml version="1.0" encoding="utf-8" ?>
<svg xmlns="http://www.w3.org/2000/svg" xmlns:xlink="http://www.w3.org/1999/xlink" width="998" height="1072">
	<path fill="#FEFBE5" d="M0 0L998 0L998 1071.08C997.541 1071.31 997.077 1071.59 996.582 1071.74C992.915 1072.8 963.108 1072 957.377 1072L830.889 1072.01L229.448 1072.01L78.4609 1072.01L28.5529 1072C20.034 1072 11.3709 1072.33 2.86544 1071.94C1.70626 1071.88 1.00944 1071.66 0 1071.08L0 0Z"/>
	<path fill="#222" d="M480.415 62.4318C481.798 62.3525 483.216 62.2504 484.602 62.3104C489.834 62.5373 494.943 64.6304 499.388 67.292C510.338 73.8482 520.275 83.5266 530.272 91.5155C561.655 116.593 593.342 141.395 621.196 170.479C656.418 207.256 691.437 250.61 713.103 296.874C719.803 311.18 725.036 325.994 729.495 341.138C733.535 354.86 736.883 368.718 738.585 382.942C741.03 403.383 739.798 423.425 739.374 443.916C760.222 460.125 788.481 476.75 795.611 503.999C798.785 516.13 797.264 529.94 790.897 540.795C783.218 553.679 770.684 562.936 756.112 566.483C735.692 571.584 715.676 564.455 698.261 553.983C698.205 554.028 698.15 554.073 698.094 554.117C693.858 557.459 690.521 561.876 686.886 565.84C680.954 572.311 674.752 578.727 668.14 584.505C662.79 589.181 657.1 593.673 651.256 597.715C645.949 601.386 639.857 604.697 635.205 609.143C636.267 616.052 639.558 632.63 643.268 638.298C648.906 646.912 671.299 645.772 679.194 661.056C682.701 667.846 682.593 676.671 680.336 683.85C677.547 692.724 671.428 698.62 663.272 702.778C642.059 713.592 597.638 725.36 574.891 717.656C557.38 711.725 550.771 698.337 544.717 682.095C541.936 674.632 539.293 667.054 537.143 659.383C535.538 653.655 534.422 647.046 531.802 641.718C530.457 640.906 528.536 641.173 526.994 641.194C519.287 641.756 511.716 642.229 503.985 641.851C496.456 641.484 488.978 640.387 481.445 639.98C477.238 646.847 474.659 655.51 472.152 663.153C475.564 668.086 479.844 672.432 483.095 677.458C487.621 684.452 489.003 692.53 487.197 700.649C485.513 708.219 481.473 714.582 474.851 718.74C461.904 726.868 438.174 722.417 423.799 719.226C406.69 715.429 372.762 705.14 363.335 689.972C360.459 685.344 359.37 680.02 359.131 674.631C358.297 655.876 366.857 622.002 371.495 602.654C366.146 598.598 360.513 594.95 355.254 590.771C340.734 579.231 328.444 566.702 316.084 552.945C316.009 552.978 315.934 553.012 315.859 553.045C310.01 555.558 304.738 559.468 299.239 562.665C285.012 570.937 267.981 577.084 251.306 574.84C236.869 572.932 223.836 565.215 215.22 553.473C207.654 543.363 203.964 530.508 205.877 517.956C210.944 484.716 247.263 465.322 271.947 447.289C270.246 436.553 269.83 425.882 269.874 415.029C270.146 346.863 301.908 283.024 347.498 233.613C373.42 205.519 403.471 180.946 426.451 150.21C435.67 137.878 443.482 124.212 448.71 109.701C453.016 97.7462 455.266 83.3391 462.758 72.899C467.273 66.6076 472.967 63.665 480.415 62.4318Z"/>
	<path fill="#FB533A" d="M482.206 84.7607C482.352 84.7613 482.498 84.7543 482.643 84.7625C485.413 84.9199 487.65 86.0411 489.933 87.5294C499.009 93.4478 507.835 101.802 516.403 108.594C536.957 124.887 557.801 140.837 577.237 158.484C590.643 170.898 603.615 183.773 616.13 197.084C634.365 216.777 652.149 237.904 667.085 260.239C698.991 307.954 721.26 365.863 718.953 423.958C717.362 464.032 710.06 495.223 687.171 528.683C677.877 542.269 667.523 554.354 655.398 565.514C619.32 598.724 565.692 618.466 516.889 619.356C511.05 619.463 505.167 619.437 499.354 618.842C492.113 618.102 484.763 616.721 477.492 616.479C473.659 616.352 469.926 616.891 467.074 619.679C462.602 624.049 460.532 634.235 458.466 640.05C455.548 648.259 450.41 657.144 449.524 665.806C448.387 676.913 465.009 683.843 464.46 695.5C464.397 696.843 463.771 698.038 462.687 698.841C458.012 702.303 444.616 700.7 438.79 700.077C426.368 698.518 392.328 690.422 384.345 681.224C382.074 678.607 381.066 675.334 380.714 671.94C379.285 658.184 385.987 633.297 389.442 619.838C391.066 613.507 393.713 606.331 393.844 599.779C393.918 596.073 392.986 591.827 390.397 589.034C385.105 583.324 377.518 579.15 371.273 574.542C364.335 569.422 357.469 563.523 351.115 557.685C344.962 552.033 339.144 544.685 334.115 538.03C331.401 534.439 328.879 530.497 325.735 527.269C323.718 525.198 321.24 523.003 318.171 523.204C311.009 523.674 303.808 531.648 298.243 535.657C286.719 543.956 271.545 552.147 256.903 551.82C248.629 551.593 240.797 548.032 235.188 541.944C230.528 536.904 227.737 530.433 228.177 523.479C229.472 503.032 257.322 485.094 272.869 474.797C278.66 470.962 285.062 467.358 290.216 462.71C292.745 460.43 294.42 458.097 294.914 454.673C296.037 446.887 293.001 437.699 292.266 429.869C291.407 420.727 291.615 411.445 292.098 402.286C295.203 343.437 329.317 282.511 369.869 241.126C383.104 227.619 396.684 214.435 410.015 201.02C423.427 187.524 436.659 174.037 447.483 158.31C457.791 143.333 465.348 127.288 471.419 110.171C473.805 103.445 475.364 95.9086 478.365 89.4672C479.279 87.5063 480.616 86.1891 482.206 84.7607Z"/>
	<path fill="#222" d="M487.869 378.068C494.11 378.69 498.275 386.316 502.825 390.136C513.675 399.244 532.555 400.562 544.668 393.231C550.712 389.573 556.588 378.937 563.736 378.616C566.137 378.508 568.394 379.586 570.11 381.215C573.074 384.029 574.628 388.251 574.588 392.299C574.531 398.04 571.302 401.711 567.38 405.415C560.796 411.147 552.41 415.457 544.04 417.843C527.705 422.499 508.966 420.431 494.145 412.125C487.475 408.388 478.43 402.106 476.481 394.25C475.655 390.922 475.92 387.002 477.819 384.073C480.072 380.596 483.965 378.864 487.869 378.068Z"/>
	<path fill="#222" d="M452.144 318.327C456.159 318.106 459.813 318.707 463.404 320.601C468.528 323.303 471.991 328.108 473.739 333.551C476.033 340.697 475.247 348.955 471.621 355.516C468.371 361.395 463.879 364.565 457.604 366.485C453.31 366.912 449.482 366.307 445.687 364.194C440.228 361.153 436.493 355.603 434.904 349.639C433.046 342.661 433.864 334.45 437.599 328.211C441.001 322.528 445.938 319.897 452.144 318.327Z"/>
	<path fill="#222" d="M591.898 317.862C595.62 317.624 599.308 318.308 602.595 320.106C607.604 322.847 611.041 327.845 612.663 333.24C614.798 340.327 614.022 347.974 610.507 354.487C607.195 360.583 602.706 363.577 596.227 365.461C591.83 366.103 587.702 365.093 583.977 362.647C578.463 359.025 575.046 352.939 573.932 346.532C572.714 339.522 573.901 331.579 578.16 325.76C581.651 320.99 586.203 318.771 591.898 317.862Z"/>
	<path fill="#FB533A" d="M613.215 620.406C618.315 626.443 618.77 650.652 627.474 657.139C635.398 663.044 646.803 663.125 655.079 668.637C656.914 669.859 658.89 671.665 659.079 674.015C659.202 675.557 658.494 677.065 657.596 678.27C649.215 689.522 617.383 695.066 603.478 697.076C595.382 698.27 585.595 698.989 578.564 694.008C565.603 684.825 558.924 653.495 556.087 638.341C565.148 634.253 575.684 632.259 585.229 629.428C594.633 626.638 603.825 623.221 613.215 620.406Z"/>
	<path fill="#FB533A" d="M734.807 470.559C735.43 470.846 736.042 471.145 736.643 471.478C747.384 477.436 769.863 497.717 773.255 509.454C775.09 515.804 774.553 522.84 771.29 528.641C766.903 536.441 759.53 541.391 751.066 543.76C746.793 544.699 742.132 544.631 737.805 544.125C732.085 543.456 716.272 539.362 713.147 534.689C712.042 533.036 712.393 531.474 713.06 529.735C715.103 524.409 718.52 519.423 720.925 514.211C727.694 499.541 731.718 486.398 734.807 470.559Z"/>
	<path fill="#EBDEC4" d="M497.962 788.52C500.132 788.145 502.586 788.291 504.794 788.257C571.054 787.228 688.498 800.758 737.411 848.672C749.503 860.517 758.429 874.162 758.449 891.567C758.469 908.78 750.977 921.987 739.035 933.969C694.681 978.47 589.537 996.118 528.83 996.073C513.56 996.106 498.053 996.634 482.805 995.861C423.365 992.846 340.388 979.133 293.804 939.351C280.549 928.031 268.911 914.433 267.579 896.399C266.38 880.173 272.013 866.572 282.656 854.471C320.733 811.176 405.745 795.75 460.253 790.557C472.73 789.369 485.434 789.297 497.962 788.52Z"/>
	<path fill="#FEFBE5" d="M500.478 805.809C501.205 805.78 501.933 805.757 502.661 805.743C517.735 805.411 533.187 805.394 548.234 806.309C600.589 809.496 682.262 822.68 721.309 860.412C730.039 868.849 736.286 879.059 736.363 891.461C736.442 904.281 730.46 914.016 721.602 922.828C681.431 962.792 580.321 978.246 525.298 978.084C510.234 978.174 495.023 978.585 479.98 977.705C429.278 974.738 344.502 961.104 306.167 924.93C296.891 916.176 289.871 905.802 289.557 892.729C289.278 881.103 294.556 870.633 302.462 862.358C310.722 853.712 320.772 847.329 331.19 841.629C379.844 815.011 445.586 806.798 500.478 805.809Z"/>
	<path fill="#EBDEC4" d="M501.101 832.001C512.712 831.911 524.556 831.555 536.142 832.213C569.457 834.104 622.588 842.9 647.385 866.853C653.706 872.958 658.309 880.56 658.425 889.556C658.544 898.887 654.667 906.957 648.136 913.469C622.53 939.006 561.44 950.096 526.083 950.052C513.093 950.285 499.77 950.575 486.807 949.776C452.823 947.682 403.619 939.334 378.147 914.994C371.387 908.534 366.101 899.741 366.059 890.161C366.021 881.619 369.941 874.352 375.823 868.396C402.11 841.775 464.849 832.354 501.101 832.001Z"/>
	<path fill="#FEFBE5" d="M515.593 848.745C546.71 848.936 601.476 854.067 625.797 875.059C630.132 878.8 634.083 883.513 634.352 889.497C634.587 894.694 631.965 899.218 628.508 902.897C610.796 921.749 566.271 929.347 541.198 931.678C531.258 932.603 521.038 932.359 511.049 932.745C479.206 932.526 423.218 927.647 398.544 905.709C394.526 902.137 390.974 897.571 390.81 891.966C390.652 886.529 393.158 881.775 396.884 877.977C419.742 854.674 484.229 848.879 515.593 848.745Z"/>
	<path fill="#EBDEC4" d="M512.075 869.168C526.729 868.283 549.784 870.763 561.363 880.698C564.053 883.005 566.306 886.143 566.435 889.801C566.554 893.177 564.825 896.102 562.531 898.448C551.04 910.201 528.674 910.947 513.192 910.812C497.413 910.2 477.205 909.709 464.414 899.257C461.667 897.013 459.068 894.042 458.858 890.324C458.697 887.476 460.06 884.856 461.887 882.765C472.542 870.571 496.977 869.88 512.075 869.168Z"/>
</svg>
