<svg width="501" height="280" viewBox="0 0 501 280" fill="none" xmlns="http://www.w3.org/2000/svg">
<path d="M252.886 154.958C356.92 155.395 440.848 183.47 440.849 218.039C440.849 252.88 358.64 279.956 253.472 279.957L251.01 279.952C146.929 279.533 60 252.608 60 218.039C60.0008 183.198 145.257 154.954 250.425 154.954L252.886 154.958ZM250.425 165.468C198.651 165.468 152.213 172.435 119.081 183.412C102.459 188.918 89.7675 195.245 81.4482 201.761C73.0035 208.376 70.5148 213.959 70.5146 218.039C70.5146 221.936 72.9813 227.428 81.7471 234C90.3474 240.447 103.431 246.657 120.464 252.037C154.407 262.757 201.658 269.442 253.472 269.442C305.29 269.442 350.959 262.756 383.303 252.079C399.529 246.722 411.807 240.554 419.815 234.184C427.892 227.76 430.335 222.244 430.335 218.039C430.335 213.959 427.846 208.376 419.401 201.761C411.082 195.245 398.39 188.918 381.769 183.412C348.637 172.435 302.199 165.468 250.425 165.468ZM250.425 180.192C312.017 180.192 361.948 197.031 361.948 217.803L361.939 218.289C361.196 238.826 313.321 254.717 252.209 254.717C190.617 254.717 138.902 238.575 138.901 217.803C138.902 197.031 188.832 180.192 250.425 180.192ZM250.425 195.379C220.822 195.379 194.656 199.449 176.419 205.599C167.224 208.7 160.875 212.055 157.134 215.038C155.614 216.249 154.817 217.147 154.41 217.708C154.837 218.253 155.651 219.111 157.158 220.261C161.058 223.237 167.644 226.549 177.106 229.591C195.861 235.621 222.547 239.53 252.209 239.53C281.877 239.53 307.585 235.619 325.338 229.654C334.288 226.646 340.367 223.396 343.905 220.531C345.449 219.28 346.194 218.381 346.542 217.855C346.173 217.309 345.375 216.361 343.716 215.038C339.975 212.055 333.626 208.7 324.431 205.599C306.194 199.449 280.028 195.379 250.425 195.379ZM250.425 202.499C275.145 202.499 295.185 209.257 295.186 217.594C295.186 225.931 275.862 232.411 251.141 232.411C226.42 232.411 205.663 225.931 205.663 217.594C205.664 209.257 225.704 202.499 250.425 202.499Z" fill="#EBDFC4" fill-opacity="0.4"/>
<g filter="url(#filter0_di_32_309)">
<path d="M23.9911 141.17C18.7526 141.17 14.2665 139.387 10.5327 135.82C6.79887 132.198 4.93197 127.768 4.93197 122.529V64.683C4.93197 59.3888 6.79887 54.8748 10.5327 51.141C14.2665 47.4072 18.7526 45.5403 23.9911 45.5403L41.6291 57.494V56.6581L42.6323 55.4042L44.7221 53.2308C49.2361 48.4939 54.0845 46.0418 59.2672 45.8747C61.1062 45.8747 62.6945 46.0976 64.032 46.5434C67.3757 47.3793 70.19 48.9955 72.4748 51.3918C74.8154 53.7881 76.2922 56.5467 76.9052 59.6675C77.1282 61.5622 77.2396 62.9554 77.2396 63.8471C77.2396 67.9153 75.8464 71.4262 73.06 74.3798C70.2736 77.2776 65.8432 79.7576 59.7688 81.8195C59.1557 82.0424 58.6263 82.2375 58.1805 82.4047C57.7347 82.5718 57.1217 82.8226 56.3415 83.157C53.4993 84.2716 51.1587 85.414 49.3197 86.5843C47.5364 87.7546 46.171 89.0642 45.2236 90.5131C44.332 91.9621 43.6911 93.7454 43.301 95.8631C42.9666 97.925 42.7994 100.767 42.7994 104.39V121.192C42.7994 124.814 41.9635 128.158 40.2917 131.223C38.6198 134.232 36.3349 136.628 33.4371 138.412C30.5392 140.195 27.3905 141.115 23.9911 141.17ZM99.0573 141.505C93.8188 141.505 89.3327 139.666 85.5989 135.988C81.9208 132.254 80.0818 127.712 80.0818 122.362V64.683C80.0818 61.1721 80.9177 57.9677 82.5895 55.0699C84.3171 52.1162 86.6299 49.8035 89.5277 48.1317C92.4813 46.4041 95.7136 45.5403 99.2245 45.5403C102.68 45.596 105.856 46.4877 108.754 48.2153C111.652 49.9428 113.937 52.2556 115.609 55.1534C117.336 58.0513 118.2 61.2836 118.2 64.8502V122.195C118.2 127.6 116.333 132.17 112.599 135.904C108.866 139.638 104.352 141.505 99.0573 141.505ZM84.8465 35.76C80.9456 31.859 78.9951 27.0106 78.9951 21.2148C78.9951 15.6977 81.0013 10.8493 85.0137 6.66971C86.9642 4.77494 89.1376 3.326 91.534 2.32289C93.9303 1.31978 96.4381 0.81822 99.0573 0.81822C104.574 0.81822 109.311 2.88017 113.268 7.00408C117.113 11.0165 119.036 15.8092 119.036 21.382C119.036 27.122 117.113 31.9147 113.268 35.76C109.423 39.6052 104.686 41.5278 99.0573 41.5278C93.4287 41.5278 88.6918 39.6052 84.8465 35.76ZM133.999 178.035C130.321 174.189 128.482 169.62 128.482 164.325V64.5158C128.482 59.1659 130.349 54.6798 134.083 51.0574C137.872 47.3793 142.47 45.5403 147.875 45.5403L162.755 54.0667V53.2308C169.052 48.1038 176.576 45.5403 185.325 45.5403C189.783 45.5403 194.074 46.209 198.198 47.5465C202.378 48.884 206.362 50.946 210.152 53.7324C214.666 56.9089 218.483 61.1443 221.604 66.4385C224.781 71.7327 226.954 77.7513 228.124 84.4945C228.737 88.284 229.044 91.4327 229.044 93.9404C229.044 97.5628 228.626 101.102 227.79 104.557C226.062 113.027 222.719 120.244 217.759 126.207C212.799 132.17 206.613 136.489 199.201 139.164C194.297 140.836 189.393 141.672 184.489 141.672C179.306 141.672 174.402 140.78 169.777 138.997L167.854 138.328L166.182 137.576V164.493C166.182 169.843 164.287 174.412 160.498 178.202C156.764 181.936 152.389 183.803 147.374 183.803C142.135 183.803 137.677 181.88 133.999 178.035ZM165.513 94.6092C165.569 99.1232 166.795 102.746 169.192 105.476C171.644 108.151 174.681 109.489 178.303 109.489C182.093 109.489 185.186 107.928 187.582 104.807C189.978 101.687 191.176 97.2006 191.176 91.3491C190.675 88.1168 189.477 85.4976 187.582 83.4914C185.743 81.4294 183.458 80.1755 180.727 79.7297C176.102 79.7297 172.396 81.0672 169.61 83.7421C166.879 86.3614 165.513 89.9837 165.513 94.6092ZM243.004 178.035C239.326 174.189 237.487 169.62 237.487 164.325V64.5158C237.487 59.1659 239.354 54.6798 243.087 51.0574C246.877 47.3793 251.475 45.5403 256.88 45.5403L271.76 54.0667V53.2308C278.057 48.1038 285.58 45.5403 294.33 45.5403C298.788 45.5403 303.079 46.209 307.203 47.5465C311.383 48.884 315.367 50.946 319.157 53.7324C323.671 56.9089 327.488 61.1443 330.609 66.4385C333.785 71.7327 335.959 77.7513 337.129 84.4945C337.742 88.284 338.049 91.4327 338.049 93.9404C338.049 97.5628 337.631 101.102 336.795 104.557C335.067 113.027 331.724 120.244 326.764 126.207C321.804 132.17 315.618 136.489 308.206 139.164C303.302 140.836 298.398 141.672 293.494 141.672C288.311 141.672 283.407 140.78 278.782 138.997L276.859 138.328L275.187 137.576V164.493C275.187 169.843 273.292 174.412 269.503 178.202C265.769 181.936 261.394 183.803 256.379 183.803C251.14 183.803 246.682 181.88 243.004 178.035ZM274.518 94.6092C274.574 99.1232 275.8 102.746 278.196 105.476C280.648 108.151 283.686 109.489 287.308 109.489C291.098 109.489 294.19 107.928 296.587 104.807C298.983 101.687 300.181 97.2006 300.181 91.3491C299.68 88.1168 298.482 85.4976 296.587 83.4914C294.748 81.4294 292.463 80.1755 289.732 79.7297C285.107 79.7297 281.401 81.0672 278.614 83.7421C275.884 86.3614 274.518 89.9837 274.518 94.6092ZM352.176 136.071C348.386 132.282 346.492 127.712 346.492 122.362V23.2211C346.492 19.8773 347.355 16.7566 349.083 13.8587C350.811 10.9608 353.151 8.67593 356.105 7.00408C359.058 5.2765 362.318 4.4127 365.885 4.4127C369.284 4.46843 372.405 5.38795 375.247 7.17126C378.145 8.89884 380.402 11.2116 382.018 14.1095C383.69 17.0073 384.526 20.156 384.526 23.5554V122.195C384.526 127.656 382.715 132.282 379.093 136.071C375.192 139.693 370.678 141.505 365.551 141.505C360.424 141.505 355.965 139.693 352.176 136.071ZM492.946 87.253C492.946 92.8259 491.748 96.7547 489.351 99.0396C486.955 101.324 482.971 102.467 477.398 102.467H432.843C433.066 102.801 434.097 103.888 435.936 105.727C437.552 106.953 439.084 107.873 440.533 108.486C442.038 109.043 444.044 109.517 446.552 109.907C449.06 110.241 452.097 110.408 455.664 110.408C459.119 110.241 463.493 109.433 468.788 107.984C472.856 106.981 475.726 106.479 477.398 106.479C481.912 106.479 485.506 107.789 488.181 110.408C490.912 113.027 492.277 116.26 492.277 120.105C492.277 121.498 492.166 122.585 491.943 123.365C491.33 125.483 490.355 127.378 489.017 129.049C487.735 130.721 486.008 132.226 483.834 133.563C481.717 134.845 478.707 136.183 474.806 137.576C470.014 139.025 465.11 140.056 460.094 140.669C456.583 141.115 452.821 141.337 448.809 141.337C440.505 141.337 432.871 140.139 425.905 137.743C418.994 135.291 413.059 131.836 408.099 127.378C403.14 122.919 399.378 117.681 396.814 111.662C394.251 105.643 392.969 99.0675 392.969 91.9342C393.136 85.6369 394.53 79.6182 397.149 73.8782C399.824 68.0824 403.39 63.1226 407.849 58.9987C412.363 54.8191 417.713 51.5311 423.898 49.1348C430.084 46.7385 436.772 45.5403 443.961 45.5403C453.49 45.7075 461.989 47.9088 469.456 52.1441C474.026 54.8191 478.039 58.1349 481.494 62.0916C485.005 65.9926 487.735 70.1444 489.686 74.5469C491.692 78.8938 492.779 83.1291 492.946 87.253ZM433.177 83.8257H453.574C453.574 83.157 453.518 82.5997 453.407 82.1539C452.571 76.6368 448.698 73.8782 441.787 73.8782C437.719 74.8813 434.96 77.6956 433.512 82.3211C433.289 82.9898 433.177 83.4914 433.177 83.8257Z" fill="#FA5539"/>
</g>
<defs>
<filter id="filter0_di_32_309" x="0.931946" y="-5.18188" width="496.014" height="196.984" filterUnits="userSpaceOnUse" color-interpolation-filters="sRGB">
<feFlood flood-opacity="0" result="BackgroundImageFix"/>
<feColorMatrix in="SourceAlpha" type="matrix" values="0 0 0 0 0 0 0 0 0 0 0 0 0 0 0 0 0 0 127 0" result="hardAlpha"/>
<feOffset dy="4"/>
<feGaussianBlur stdDeviation="2"/>
<feComposite in2="hardAlpha" operator="out"/>
<feColorMatrix type="matrix" values="0 0 0 0 0.407843 0 0 0 0 0.407843 0 0 0 0 0.407843 0 0 0 0.25 0"/>
<feBlend mode="normal" in2="BackgroundImageFix" result="effect1_dropShadow_32_309"/>
<feBlend mode="normal" in="SourceGraphic" in2="effect1_dropShadow_32_309" result="shape"/>
<feColorMatrix in="SourceAlpha" type="matrix" values="0 0 0 0 0 0 0 0 0 0 0 0 0 0 0 0 0 0 127 0" result="hardAlpha"/>
<feOffset dy="-6"/>
<feGaussianBlur stdDeviation="6.9"/>
<feComposite in2="hardAlpha" operator="arithmetic" k2="-1" k3="1"/>
<feColorMatrix type="matrix" values="0 0 0 0 0 0 0 0 0 0 0 0 0 0 0 0 0 0 0.25 0"/>
<feBlend mode="normal" in2="shape" result="effect2_innerShadow_32_309"/>
</filter>
</defs>
</svg>
