<svg width="34" height="39" viewBox="0 0 34 39" fill="none" xmlns="http://www.w3.org/2000/svg">
<path d="M15.8004 0.00822817C15.8799 0.00354975 15.9613 -0.00247394 16.0409 0.00106584C16.3415 0.0144521 16.635 0.137938 16.8904 0.294962C17.5194 0.681754 18.0903 1.25275 18.6646 1.72406C20.4675 3.20354 22.2879 4.66677 23.888 6.38262C25.9115 8.55233 27.9233 11.1101 29.1679 13.8395C29.5528 14.6835 29.8535 15.5574 30.1096 16.4509C30.3417 17.2604 30.5341 18.078 30.6318 18.9172C30.7723 20.1231 30.7015 21.3055 30.6772 22.5144C31.8748 23.4707 33.4983 24.4515 33.9079 26.0591C34.0902 26.7748 34.0028 27.5895 33.6371 28.2299C33.1959 28.99 32.4759 29.5362 31.6387 29.7454C30.4656 30.0464 29.3157 29.6258 28.3153 29.008C28.3121 29.0106 28.3089 29.0133 28.3057 29.0159C28.0623 29.213 27.8706 29.4736 27.6618 29.7075C27.321 30.0893 26.9647 30.4678 26.5849 30.8087C26.2775 31.0845 25.9507 31.3495 25.6149 31.588C25.31 31.8046 24.9601 31.9999 24.6928 32.2622C24.7538 32.6698 24.9429 33.6479 25.156 33.9823C25.4799 34.4904 26.7664 34.4232 27.2199 35.3249C27.4214 35.7255 27.4152 36.2461 27.2855 36.6697C27.1253 37.1932 26.7738 37.541 26.3052 37.7863C25.0866 38.4243 22.5347 39.1186 21.2279 38.6641C20.2219 38.3142 19.8422 37.5243 19.4944 36.5661C19.3347 36.1258 19.1828 35.6788 19.0593 35.2262C18.9671 34.8883 18.903 34.4984 18.7525 34.184C18.6752 34.1361 18.5649 34.1519 18.4763 34.1531C18.0335 34.1863 17.5986 34.2142 17.1545 34.1919C16.7219 34.1702 16.2923 34.1055 15.8596 34.0815C15.6179 34.4866 15.4697 34.9977 15.3257 35.4486C15.5217 35.7396 15.7676 35.996 15.9544 36.2925C16.2144 36.7052 16.2938 37.1817 16.19 37.6607C16.0933 38.1073 15.8612 38.4827 15.4808 38.728C14.737 39.2076 13.3737 38.945 12.5479 38.7567C11.565 38.5327 9.61592 37.9257 9.07435 37.0308C8.90913 36.7578 8.84657 36.4437 8.83284 36.1258C8.78493 35.0193 9.27668 33.0208 9.54313 31.8794C9.23584 31.6401 8.91223 31.4249 8.61011 31.1783C7.77596 30.4975 7.06992 29.7583 6.35986 28.9467C6.35555 28.9487 6.35125 28.9507 6.34694 28.9526C6.01092 29.1009 5.70805 29.3316 5.39215 29.5202C4.57483 30.0082 3.59643 30.3708 2.63848 30.2385C1.80909 30.1259 1.06037 29.6706 0.565395 28.9779C0.130741 28.3814 -0.0812429 27.623 0.0286557 26.8825C0.319746 24.9215 2.40621 23.7773 3.82427 22.7134C3.72655 22.08 3.70265 21.4505 3.70518 20.8102C3.7208 16.7886 5.54547 13.0224 8.16454 10.1073C9.65372 8.44986 11.3801 7.00014 12.7003 5.18682C13.2299 4.45928 13.6787 3.65304 13.979 2.79694C14.2264 2.09165 14.3556 1.24168 14.786 0.625755C15.0454 0.254585 15.3725 0.0809825 15.8004 0.00822817Z" fill="black"/>
<path d="M15.9033 1.32557C15.9117 1.32561 15.92 1.32519 15.9284 1.32568C16.0875 1.33496 16.216 1.40111 16.3472 1.48891C16.8686 1.83808 17.3756 2.33095 17.8678 2.73165C19.0486 3.69288 20.2461 4.63387 21.3626 5.67498C22.1328 6.40736 22.878 7.16694 23.597 7.95224C24.6446 9.11405 25.6662 10.3605 26.5243 11.6782C28.3572 14.4932 29.6365 17.9096 29.504 21.337C29.4126 23.7012 28.9931 25.5414 27.6782 27.5154C27.1442 28.3169 26.5494 29.0299 25.8529 29.6883C23.7802 31.6475 20.6994 32.8123 17.8958 32.8648C17.5603 32.8711 17.2223 32.8695 16.8884 32.8344C16.4724 32.7908 16.0502 32.7093 15.6325 32.695C15.4123 32.6875 15.1978 32.7193 15.034 32.8838C14.7771 33.1416 14.6581 33.7426 14.5395 34.0856C14.3718 34.5699 14.0766 35.0941 14.0257 35.6051C13.9604 36.2604 14.9153 36.6693 14.8838 37.357C14.8802 37.4362 14.8442 37.5067 14.7819 37.5541C14.5134 37.7583 13.7438 37.6638 13.4091 37.627C12.6955 37.535 10.7399 37.0574 10.2813 36.5147C10.1509 36.3604 10.093 36.1673 10.0727 35.967C9.99063 35.1555 10.3757 33.6872 10.5741 32.8932C10.6674 32.5197 10.8195 32.0963 10.827 31.7098C10.8313 31.4911 10.7777 31.2406 10.629 31.0759C10.325 30.739 9.88913 30.4928 9.53036 30.2209C9.13178 29.9188 8.73734 29.5708 8.37232 29.2264C8.01884 28.8929 7.6846 28.4594 7.39569 28.0668C7.23978 27.855 7.0949 27.6224 6.91428 27.432C6.7984 27.3098 6.65605 27.1803 6.47974 27.1921C6.06829 27.2199 5.65461 27.6903 5.33491 27.9268C4.67288 28.4164 3.80116 28.8997 2.96 28.8804C2.48467 28.867 2.03473 28.6569 1.71251 28.2977C1.4448 28.0004 1.28446 27.6186 1.30974 27.2084C1.38413 26.0021 2.98407 24.9438 3.87722 24.3363C4.2099 24.1101 4.57768 23.8974 4.87377 23.6232C5.01906 23.4887 5.11528 23.3511 5.14366 23.1491C5.20818 22.6897 5.03376 22.1477 4.99154 21.6857C4.94219 21.1464 4.95414 20.5988 4.98189 20.0584C5.16027 16.5865 7.12006 12.9921 9.4497 10.5506C10.21 9.75369 10.9902 8.97588 11.756 8.18445C12.5265 7.38823 13.2867 6.59255 13.9085 5.66471C14.5007 4.78112 14.9348 3.83453 15.2836 2.82469C15.4207 2.42788 15.5102 1.98326 15.6826 1.60324C15.7351 1.48755 15.8119 1.40984 15.9033 1.32557Z" fill="#FA5539"/>
<path d="M16.2286 18.6296C16.5872 18.6663 16.8264 19.1162 17.0878 19.3416C17.7111 19.8789 18.7958 19.9567 19.4916 19.5242C19.8389 19.3084 20.1764 18.6809 20.5871 18.662C20.725 18.6556 20.8547 18.7192 20.9532 18.8153C21.1235 18.9813 21.2128 19.2304 21.2105 19.4692C21.2072 19.8079 21.0217 20.0245 20.7964 20.243C20.4182 20.5812 19.9364 20.8355 19.4556 20.9762C18.5171 21.2509 17.4406 21.1289 16.5892 20.6389C16.206 20.4184 15.6864 20.0478 15.5744 19.5843C15.527 19.388 15.5422 19.1567 15.6513 18.9839C15.7807 18.7788 16.0043 18.6766 16.2286 18.6296Z" fill="black"/>
<path d="M14.1763 15.1051C14.4069 15.0921 14.6169 15.1275 14.8232 15.2393C15.1175 15.3987 15.3165 15.6821 15.4169 16.0033C15.5487 16.4249 15.5035 16.912 15.2952 17.2991C15.1085 17.646 14.8504 17.833 14.49 17.9463C14.2433 17.9714 14.0234 17.9358 13.8053 17.8111C13.4917 17.6317 13.2772 17.3043 13.1859 16.9524C13.0791 16.5407 13.1261 16.0563 13.3407 15.6882C13.5361 15.3529 13.8198 15.1977 14.1763 15.1051Z" fill="black"/>
<path d="M22.2049 15.0776C22.4187 15.0636 22.6306 15.104 22.8194 15.21C23.1072 15.3717 23.3046 15.6666 23.3978 15.9849C23.5205 16.403 23.4759 16.8541 23.2739 17.2384C23.0837 17.598 22.8258 17.7747 22.4536 17.8858C22.201 17.9237 21.9638 17.8641 21.7498 17.7198C21.4331 17.5061 21.2368 17.1471 21.1728 16.7691C21.1028 16.3555 21.171 15.8869 21.4157 15.5436C21.6162 15.2622 21.8777 15.1313 22.2049 15.0776Z" fill="black"/>
<path d="M23.4295 32.9268C23.7225 33.2829 23.7486 34.7112 24.2486 35.0939C24.7039 35.4422 25.3591 35.447 25.8345 35.7722C25.9399 35.8443 26.0534 35.9509 26.0643 36.0895C26.0714 36.1805 26.0307 36.2694 25.9791 36.3405C25.4976 37.0044 23.6689 37.3314 22.8701 37.45C22.405 37.5205 21.8428 37.5629 21.4389 37.269C20.6943 36.7272 20.3106 34.8789 20.1476 33.9849C20.6681 33.7437 21.2734 33.626 21.8217 33.459C22.362 33.2944 22.8901 33.0928 23.4295 32.9268Z" fill="#FA5539"/>
<path d="M30.4148 24.0862C30.4506 24.1031 30.4857 24.1208 30.5203 24.1404C31.1373 24.4919 32.4287 25.6884 32.6236 26.3808C32.729 26.7555 32.6981 27.1706 32.5107 27.5128C32.2587 27.973 31.8351 28.265 31.3488 28.4048C31.1034 28.4602 30.8356 28.4562 30.587 28.4263C30.2584 28.3868 29.35 28.1453 29.1705 27.8696C29.107 27.7721 29.1271 27.6799 29.1655 27.5774C29.2828 27.2631 29.4791 26.969 29.6173 26.6615C30.0062 25.796 30.2373 25.0206 30.4148 24.0862Z" fill="#FA5539"/>
</svg>
