<svg width="433" height="142" viewBox="0 0 433 142" fill="none" xmlns="http://www.w3.org/2000/svg">
<path d="M216.548 0.333984C335.736 0.333984 432.356 32.3436 432.356 71.8291L432.352 72.291C431.629 111.554 338.723 142 220.001 142L217.211 141.994C99.7196 141.522 1.51522 111.246 0.744019 72.291L0.739136 71.8291C0.739136 32.3436 97.3599 0.333986 216.548 0.333984ZM216.548 12.25C157.872 12.25 105.244 20.1466 67.6952 32.5859C48.8579 38.8265 34.4739 45.9962 25.0458 53.3809C15.4751 60.8772 12.6552 67.2055 12.6552 71.8291C12.6553 76.2458 15.4514 82.4697 25.3856 89.917C35.1324 97.2238 49.9605 104.262 69.2635 110.358C107.731 122.508 161.28 130.084 220.001 130.084C278.726 130.084 330.483 122.507 367.139 110.406C385.527 104.336 399.443 97.3453 408.518 90.126C417.671 82.8453 420.44 76.5956 420.44 71.8291C420.44 67.2055 417.62 60.8772 408.05 53.3809C398.622 45.9962 384.238 38.8265 365.4 32.5859C327.852 20.1466 275.223 12.25 216.548 12.25ZM216.548 28.9365C286.351 28.9366 342.938 48.0206 342.938 71.5615L342.928 72.1123C342.083 95.3869 287.827 113.396 218.57 113.396L215.307 113.383C146.95 112.823 90.159 94.7343 90.1581 71.5615C90.1581 48.0206 146.745 28.9366 216.548 28.9365ZM216.548 46.1484C182.998 46.1485 153.344 50.7604 132.677 57.7305C122.256 61.245 115.06 65.0471 110.82 68.4277C109.099 69.8004 108.197 70.8178 107.735 71.4541C108.219 72.0707 109.141 73.0437 110.849 74.3467C115.268 77.7196 122.732 81.4731 133.456 84.9209C154.711 91.7545 184.954 96.1846 218.57 96.1846C252.193 96.1845 281.328 91.7521 301.447 84.9912C311.591 81.5825 318.481 77.9001 322.49 74.6533C324.241 73.2358 325.085 72.2158 325.478 71.6201C325.06 71.0019 324.156 69.9272 322.275 68.4277C318.035 65.047 310.84 61.245 300.419 57.7305C279.751 50.7603 250.097 46.1485 216.548 46.1484ZM216.548 54.2168C244.564 54.2168 267.275 61.8768 267.275 71.3252C267.275 80.7735 245.375 88.1162 217.359 88.1162C189.343 88.1162 165.821 80.7734 165.82 71.3252C165.82 61.8768 188.531 54.2168 216.548 54.2168Z" fill="#EBDFC4" fill-opacity="0.4"/>
</svg>
